<svg xmlns="http://www.w3.org/2000/svg" viewBox="0 0 512 512">
  <rect width="512" height="512" fill="#006C35"/>
  <path fill="#0B5A2F" d="M0 402 C120 372 250 392 360 380 C430 372 480 380 512 376 V512 H0Z"/>
  <g fill="#FFFFFF">
    <path d="M150 440 L166 196 H346 L362 440 Z"/>
    <path d="M166 196 l22.5-45 22.5 45 22.5-45 22.5 45 22.5-45 22.5 45 22.5-45 22.5 45z"/>
  </g>
  <g fill="#006C35">
    <path d="M226 440 v-78 a30 30 0 0 1 60 0 v78z"/>
    <path d="M196 262 l14-28 14 28z M242 262 l14-28 14 28z M288 262 l14-28 14 28z"/>
  </g>
  <path fill="#E9C46A" d="M0 440 h512 v14 h-512z" opacity=".0"/>
</svg>
